<?xml version="1.0" encoding="UTF-8"?>
<svg width="300pt" version="1.1" xmlns="http://www.w3.org/2000/svg" height="300pt" viewBox="0 0 300 300" xmlns:xlink="http://www.w3.org/1999/xlink">
 <defs>
  <clipPath id="Clip0">
   <path d="M0 0 L0 300 L300 300 L300 0 L0 0 Z" transform="translate(0, 0)"/>
  </clipPath>
 </defs>
 <g id="Background">
  <g id="Group1" clip-path="url(#Clip0)">
   <path style="fill:#23aadc; fill-rule:nonzero;stroke:none;" d="M300 300 L0 300 L0 0 L300 0 L300 300 Z" transform="translate(0, 0)"/>
   <path style="fill:#ffffff; fill-rule:nonzero;stroke:none;" d="M200 19.2402 C192.642 22.5039 184.733 24.71 176.434 25.7012 C184.904 20.623 191.411 12.582 194.475 3 C186.546 7.7021 177.765 11.1172 168.418 12.957 C160.934 4.9824 150.27 0 138.468 0 C115.808 0 97.435 18.3711 97.435 41.0316 C97.435 44.2466 97.798 47.3786 98.498 50.3826 C64.396 48.6706 34.1611 32.3356 13.9238 7.5107 C10.3916 13.5703 8.3682 20.6191 8.3682 28.1387 C8.3682 42.3746 15.6113 54.9336 26.6221 62.2916 C19.8965 62.0786 13.5684 60.2326 8.0371 57.1596 C8.0332 57.3306 8.0332 57.5026 8.0332 57.6756 C8.0332 77.5566 22.1768 94.1396 40.9482 97.9106 C37.5049 98.8476 33.8799 99.3496 30.1377 99.3496 C27.4941 99.3496 24.9229 99.0916 22.418 98.6136 C27.6396 114.914 42.793 126.779 60.748 127.109 C46.7051 138.115 29.0127 144.674 9.7881 144.674 C6.4766 144.674 3.21 144.48 0 144.1 C18.1592 155.743 39.7275 162.537 62.899 162.537 C138.372 162.537 179.645 100.012 179.645 45.7886 C179.645 44.0106 179.604 42.2406 179.525 40.4806 C187.543 34.6956 194.499 27.4687 200 19.2402 Z" transform="translate(50, 68.7334)"/>
  </g>
 </g>
</svg>
